<svg width="234" height="32" viewBox="0 0 234 32" fill="none" xmlns="http://www.w3.org/2000/svg">
<rect x="0.75" y="0.75" width="232.5" height="30.5" rx="5.25" stroke="#E0E3E5" stroke-width="1.5"/>
<path fill-rule="evenodd" clip-rule="evenodd" d="M13.5 13C13.5 11.2511 14.9178 9.83334 16.6667 9.83334H23.3333C25.0822 9.83334 26.5 11.2511 26.5 13V19.6667C26.5 21.4156 25.0822 22.8333 23.3333 22.8333H16.6667C14.9178 22.8333 13.5 21.4156 13.5 19.6667V13ZM16.6667 10.8333C15.47 10.8333 14.5 11.8034 14.5 13V19.6667C14.5 20.8633 15.47 21.8333 16.6667 21.8333H23.3333C24.53 21.8333 25.5 20.8633 25.5 19.6667V13C25.5 11.8034 24.53 10.8333 23.3333 10.8333H16.6667Z" fill="#7D899C"/>
<path fill-rule="evenodd" clip-rule="evenodd" d="M26 14.1667H14V13.1667H26V14.1667Z" fill="#7D899C"/>
<path fill-rule="evenodd" clip-rule="evenodd" d="M23 8.83331C22.7239 8.83331 22.5 9.05717 22.5 9.33331L22.5 11.3333C22.5 11.6095 22.7239 11.8333 23 11.8333C23.2761 11.8333 23.5 11.6095 23.5 11.3333L23.5 9.33331C23.5 9.05717 23.2761 8.83331 23 8.83331Z" fill="#7D899C"/>
<path fill-rule="evenodd" clip-rule="evenodd" d="M17 8.83331C16.7239 8.83331 16.5 9.05717 16.5 9.33331L16.5 11.3333C16.5 11.6095 16.7239 11.8333 17 11.8333C17.2761 11.8333 17.5 11.6095 17.5 11.3333L17.5 9.33331C17.5 9.05717 17.2761 8.83331 17 8.83331Z" fill="#7D899C"/>
<path fill-rule="evenodd" clip-rule="evenodd" d="M15.8334 16.3333C15.8334 16.6095 16.0572 16.8333 16.3334 16.8333H17C17.2762 16.8333 17.5 16.6095 17.5 16.3333C17.5 16.0572 17.2762 15.8333 17 15.8333H16.3334C16.0572 15.8333 15.8334 16.0572 15.8334 16.3333Z" fill="#7D899C"/>
<path fill-rule="evenodd" clip-rule="evenodd" d="M19.1667 16.3333C19.1667 16.6095 19.3906 16.8333 19.6667 16.8333H20.3334C20.6096 16.8333 20.8334 16.6095 20.8334 16.3333C20.8334 16.0572 20.6096 15.8333 20.3334 15.8333H19.6667C19.3906 15.8333 19.1667 16.0572 19.1667 16.3333Z" fill="#7D899C"/>
<path fill-rule="evenodd" clip-rule="evenodd" d="M22.5 16.3333C22.5 16.6095 22.7239 16.8333 23 16.8333H23.6667C23.9428 16.8333 24.1667 16.6095 24.1667 16.3333C24.1667 16.0572 23.9428 15.8333 23.6667 15.8333H23C22.7239 15.8333 22.5 16.0572 22.5 16.3333Z" fill="#7D899C"/>
<path fill-rule="evenodd" clip-rule="evenodd" d="M15.8334 19C15.8334 19.2761 16.0572 19.5 16.3334 19.5H17C17.2762 19.5 17.5 19.2761 17.5 19C17.5 18.7239 17.2762 18.5 17 18.5H16.3334C16.0572 18.5 15.8334 18.7239 15.8334 19Z" fill="#7D899C"/>
<path fill-rule="evenodd" clip-rule="evenodd" d="M19.1667 19C19.1667 19.2761 19.3906 19.5 19.6667 19.5H20.3334C20.6096 19.5 20.8334 19.2761 20.8334 19C20.8334 18.7239 20.6096 18.5 20.3334 18.5H19.6667C19.3906 18.5 19.1667 18.7239 19.1667 19Z" fill="#7D899C"/>
<path fill-rule="evenodd" clip-rule="evenodd" d="M22.5 19C22.5 19.2761 22.7239 19.5 23 19.5H23.6667C23.9428 19.5 24.1667 19.2761 24.1667 19C24.1667 18.7239 23.9428 18.5 23.6667 18.5H23C22.7239 18.5 22.5 18.7239 22.5 19Z" fill="#7D899C"/>
<path d="M43.3885 10.8182V21H41.5441V12.6129H41.4844L39.103 14.1342V12.4439L41.6336 10.8182H43.3885ZM46.1488 21V19.6676L49.6836 16.2024C50.0216 15.861 50.3034 15.5578 50.5287 15.2926C50.7541 15.0275 50.9232 14.7706 51.0359 14.522C51.1485 14.2734 51.2049 14.0083 51.2049 13.7266C51.2049 13.4051 51.132 13.13 50.9861 12.9013C50.8403 12.6693 50.6398 12.4903 50.3846 12.3643C50.1294 12.2384 49.8394 12.1754 49.5145 12.1754C49.1798 12.1754 48.8865 12.245 48.6346 12.3842C48.3827 12.5201 48.1871 12.714 48.0479 12.9659C47.912 13.2178 47.8441 13.5178 47.8441 13.8658H46.0891C46.0891 13.2195 46.2366 12.6577 46.5316 12.1804C46.8266 11.7031 47.2326 11.3336 47.7496 11.0717C48.27 10.8099 48.8666 10.679 49.5394 10.679C50.2222 10.679 50.8221 10.8066 51.3391 11.0618C51.8562 11.317 52.2572 11.6667 52.5422 12.1108C52.8306 12.5549 52.9748 13.062 52.9748 13.6321C52.9748 14.0133 52.9019 14.3878 52.756 14.7557C52.6102 15.1236 52.3533 15.5312 51.9854 15.9787C51.6208 16.4261 51.1088 16.968 50.4492 17.6044L48.6942 19.3892V19.4588H53.1289V21H46.1488ZM60.0737 21H58.105L61.6895 10.8182H63.9665L67.5559 21H65.5872L62.8677 12.9062H62.7882L60.0737 21ZM60.1383 17.0078H65.5077V18.4893H60.1383V17.0078ZM68.9925 23.8636V13.3636H70.7624V14.6264H70.8668C70.9596 14.4408 71.0905 14.2436 71.2595 14.0348C71.4286 13.8227 71.6573 13.642 71.9456 13.4929C72.234 13.3404 72.6019 13.2642 73.0493 13.2642C73.6393 13.2642 74.1712 13.415 74.6452 13.7166C75.1225 14.0149 75.5003 14.4574 75.7787 15.044C76.0604 15.6274 76.2013 16.3433 76.2013 17.1918C76.2013 18.0303 76.0638 18.7429 75.7887 19.3295C75.5136 19.9162 75.139 20.3636 74.6651 20.6719C74.1911 20.9801 73.6542 21.1342 73.0543 21.1342C72.6168 21.1342 72.2539 21.0613 71.9655 20.9155C71.6772 20.7696 71.4451 20.594 71.2695 20.3885C71.0971 20.1797 70.9629 19.9825 70.8668 19.7969H70.7922V23.8636H68.9925ZM70.7574 17.1818C70.7574 17.6757 70.827 18.1082 70.9662 18.4794C71.1087 18.8506 71.3126 19.1406 71.5777 19.3494C71.8462 19.5549 72.171 19.6577 72.5522 19.6577C72.9499 19.6577 73.283 19.5516 73.5514 19.3395C73.8199 19.1241 74.0221 18.8307 74.158 18.4595C74.2972 18.085 74.3668 17.6591 74.3668 17.1818C74.3668 16.7079 74.2988 16.2869 74.1629 15.919C74.0271 15.5511 73.8249 15.2628 73.5564 15.054C73.2879 14.8452 72.9532 14.7408 72.5522 14.7408C72.1677 14.7408 71.8412 14.8419 71.5727 15.044C71.3043 15.2462 71.1004 15.5296 70.9612 15.8942C70.8254 16.2588 70.7574 16.688 70.7574 17.1818ZM77.9175 21V13.3636H79.6625V14.6364H79.7421C79.8813 14.1955 80.1199 13.8558 80.458 13.6172C80.7994 13.3752 81.1888 13.2543 81.6263 13.2543C81.7257 13.2543 81.8368 13.2592 81.9594 13.2692C82.0853 13.2758 82.1897 13.2874 82.2726 13.304V14.9595C82.1964 14.933 82.0754 14.9098 81.9097 14.8899C81.7473 14.8667 81.5898 14.8551 81.4374 14.8551C81.1093 14.8551 80.8143 14.9264 80.5524 15.0689C80.2939 15.2081 80.0901 15.402 79.9409 15.6506C79.7918 15.8991 79.7172 16.1858 79.7172 16.5107V21H77.9175ZM87.271 21V19.6676L90.8058 16.2024C91.1439 15.861 91.4256 15.5578 91.651 15.2926C91.8764 15.0275 92.0454 14.7706 92.1581 14.522C92.2708 14.2734 92.3271 14.0083 92.3271 13.7266C92.3271 13.4051 92.2542 13.13 92.1084 12.9013C91.9626 12.6693 91.762 12.4903 91.5068 12.3643C91.2516 12.2384 90.9616 12.1754 90.6368 12.1754C90.3021 12.1754 90.0087 12.245 89.7568 12.3842C89.5049 12.5201 89.3094 12.714 89.1702 12.9659C89.0343 13.2178 88.9664 13.5178 88.9664 13.8658H87.2114C87.2114 13.2195 87.3589 12.6577 87.6539 12.1804C87.9488 11.7031 88.3548 11.3336 88.8719 11.0717C89.3923 10.8099 89.9888 10.679 90.6617 10.679C91.3444 10.679 91.9443 10.8066 92.4614 11.0618C92.9784 11.317 93.3795 11.6667 93.6645 12.1108C93.9529 12.5549 94.097 13.062 94.097 13.6321C94.097 14.0133 94.0241 14.3878 93.8783 14.7557C93.7325 15.1236 93.4756 15.5312 93.1077 15.9787C92.7431 16.4261 92.231 16.968 91.5715 17.6044L89.8165 19.3892V19.4588H94.2512V21H87.271ZM99.9049 21.1939C99.0862 21.1939 98.3835 20.9867 97.7969 20.5724C97.2136 20.1548 96.7645 19.5533 96.4496 18.7678C96.138 17.9789 95.9823 17.0294 95.9823 15.919C95.9856 14.8087 96.143 13.8641 96.4546 13.0852C96.7694 12.303 97.2185 11.7064 97.8019 11.2955C98.3885 10.8845 99.0895 10.679 99.9049 10.679C100.72 10.679 101.421 10.8845 102.008 11.2955C102.594 11.7064 103.044 12.303 103.355 13.0852C103.67 13.8674 103.827 14.812 103.827 15.919C103.827 17.0327 103.67 17.9839 103.355 18.7727C103.044 19.5582 102.594 20.1581 102.008 20.5724C101.425 20.9867 100.724 21.1939 99.9049 21.1939ZM99.9049 19.6378C100.541 19.6378 101.043 19.3246 101.411 18.6982C101.782 18.0684 101.968 17.142 101.968 15.919C101.968 15.1103 101.884 14.4309 101.715 13.8807C101.545 13.3305 101.307 12.9162 100.999 12.6378C100.69 12.3561 100.326 12.2152 99.9049 12.2152C99.2718 12.2152 98.7713 12.5301 98.4034 13.1598C98.0355 13.7862 97.8499 14.706 97.8466 15.919C97.8433 16.7311 97.9245 17.4138 98.0902 17.9673C98.2593 18.5208 98.4979 18.9384 98.8061 19.2202C99.1144 19.4986 99.4806 19.6378 99.9049 19.6378ZM105.654 21V19.6676L109.189 16.2024C109.527 15.861 109.809 15.5578 110.034 15.2926C110.26 15.0275 110.429 14.7706 110.541 14.522C110.654 14.2734 110.71 14.0083 110.71 13.7266C110.71 13.4051 110.637 13.13 110.492 12.9013C110.346 12.6693 110.145 12.4903 109.89 12.3643C109.635 12.2384 109.345 12.1754 109.02 12.1754C108.685 12.1754 108.392 12.245 108.14 12.3842C107.888 12.5201 107.693 12.714 107.553 12.9659C107.417 13.2178 107.35 13.5178 107.35 13.8658H105.595C105.595 13.2195 105.742 12.6577 106.037 12.1804C106.332 11.7031 106.738 11.3336 107.255 11.0717C107.775 10.8099 108.372 10.679 109.045 10.679C109.728 10.679 110.328 10.8066 110.845 11.0618C111.362 11.317 111.763 11.6667 112.048 12.1108C112.336 12.5549 112.48 13.062 112.48 13.6321C112.48 14.0133 112.407 14.3878 112.261 14.7557C112.116 15.1236 111.859 15.5312 111.491 15.9787C111.126 16.4261 110.614 16.968 109.955 17.6044L108.2 19.3892V19.4588H112.634V21H105.654ZM114.122 19.1108V17.6442L118.442 10.8182H119.665V12.9062H118.919L116.011 17.5149V17.5945H122.042V19.1108H114.122ZM118.979 21V18.6634L118.999 18.0071V10.8182H120.739V21H118.979ZM132.101 15.1683V16.6499H127.517V15.1683H132.101ZM141.938 10.8182V21H140.094V12.6129H140.034L137.653 14.1342V12.4439L140.183 10.8182H141.938ZM148.233 10.679C148.72 10.6823 149.194 10.7685 149.655 10.9375C150.119 11.1032 150.537 11.375 150.908 11.7528C151.279 12.1274 151.574 12.6295 151.793 13.2592C152.012 13.889 152.121 14.6679 152.121 15.5959C152.124 16.4709 152.031 17.2531 151.843 17.9425C151.657 18.6286 151.39 19.2086 151.042 19.6825C150.694 20.1565 150.275 20.5178 149.784 20.7663C149.294 21.0149 148.742 21.1392 148.129 21.1392C147.486 21.1392 146.916 21.0133 146.419 20.7614C145.925 20.5095 145.525 20.1648 145.22 19.7273C144.915 19.2898 144.728 18.7893 144.659 18.2259H146.473C146.566 18.6302 146.755 18.9517 147.04 19.1903C147.328 19.4257 147.691 19.5433 148.129 19.5433C148.835 19.5433 149.378 19.2367 149.759 18.6236C150.141 18.0104 150.331 17.1586 150.331 16.0682H150.262C150.099 16.3598 149.889 16.6117 149.63 16.8239C149.372 17.0327 149.078 17.1934 148.75 17.3061C148.425 17.4188 148.081 17.4751 147.716 17.4751C147.12 17.4751 146.583 17.3326 146.105 17.0476C145.631 16.7625 145.255 16.3714 144.977 15.8743C144.702 15.3771 144.562 14.8087 144.559 14.169C144.559 13.5062 144.712 12.9112 145.017 12.3842C145.325 11.8539 145.754 11.4363 146.304 11.1314C146.854 10.8232 147.497 10.6723 148.233 10.679ZM148.238 12.1705C147.88 12.1705 147.557 12.2583 147.269 12.4339C146.984 12.6063 146.758 12.8416 146.593 13.1399C146.43 13.4349 146.349 13.7647 146.349 14.1293C146.352 14.4905 146.433 14.8187 146.593 15.1136C146.755 15.4086 146.975 15.6423 147.254 15.8146C147.536 15.987 147.857 16.0732 148.218 16.0732C148.487 16.0732 148.737 16.0218 148.969 15.919C149.201 15.8163 149.403 15.6738 149.576 15.4915C149.751 15.3059 149.887 15.0954 149.983 14.8601C150.083 14.6248 150.131 14.3762 150.127 14.1143C150.127 13.7663 150.045 13.4448 149.879 13.1499C149.716 12.8549 149.493 12.6179 149.208 12.4389C148.926 12.2599 148.603 12.1705 148.238 12.1705ZM159.006 21H157.037L160.622 10.8182H162.899L166.488 21H164.52L161.8 12.9062H161.721L159.006 21ZM159.071 17.0078H164.44V18.4893H159.071V17.0078ZM167.925 23.8636V13.3636H169.695V14.6264H169.799C169.892 14.4408 170.023 14.2436 170.192 14.0348C170.361 13.8227 170.59 13.642 170.878 13.4929C171.166 13.3404 171.534 13.2642 171.982 13.2642C172.572 13.2642 173.104 13.415 173.578 13.7166C174.055 14.0149 174.433 14.4574 174.711 15.044C174.993 15.6274 175.134 16.3433 175.134 17.1918C175.134 18.0303 174.996 18.7429 174.721 19.3295C174.446 19.9162 174.071 20.3636 173.597 20.6719C173.124 20.9801 172.587 21.1342 171.987 21.1342C171.549 21.1342 171.186 21.0613 170.898 20.9155C170.61 20.7696 170.378 20.594 170.202 20.3885C170.03 20.1797 169.895 19.9825 169.799 19.7969H169.725V23.8636H167.925ZM169.69 17.1818C169.69 17.6757 169.759 18.1082 169.899 18.4794C170.041 18.8506 170.245 19.1406 170.51 19.3494C170.779 19.5549 171.103 19.6577 171.485 19.6577C171.882 19.6577 172.215 19.5516 172.484 19.3395C172.752 19.1241 172.954 18.8307 173.09 18.4595C173.23 18.085 173.299 17.6591 173.299 17.1818C173.299 16.7079 173.231 16.2869 173.095 15.919C172.959 15.5511 172.757 15.2628 172.489 15.054C172.22 14.8452 171.886 14.7408 171.485 14.7408C171.1 14.7408 170.774 14.8419 170.505 15.044C170.237 15.2462 170.033 15.5296 169.894 15.8942C169.758 16.2588 169.69 16.688 169.69 17.1818ZM176.85 21V13.3636H178.595V14.6364H178.674C178.814 14.1955 179.052 13.8558 179.39 13.6172C179.732 13.3752 180.121 13.2543 180.559 13.2543C180.658 13.2543 180.769 13.2592 180.892 13.2692C181.018 13.2758 181.122 13.2874 181.205 13.304V14.9595C181.129 14.933 181.008 14.9098 180.842 14.8899C180.68 14.8667 180.522 14.8551 180.37 14.8551C180.042 14.8551 179.747 14.9264 179.485 15.0689C179.226 15.2081 179.023 15.402 178.873 15.6506C178.724 15.8991 178.65 16.1858 178.65 16.5107V21H176.85ZM186.203 21V19.6676L189.738 16.2024C190.076 15.861 190.358 15.5578 190.583 15.2926C190.809 15.0275 190.978 14.7706 191.091 14.522C191.203 14.2734 191.26 14.0083 191.26 13.7266C191.26 13.4051 191.187 13.13 191.041 12.9013C190.895 12.6693 190.694 12.4903 190.439 12.3643C190.184 12.2384 189.894 12.1754 189.569 12.1754C189.234 12.1754 188.941 12.245 188.689 12.3842C188.437 12.5201 188.242 12.714 188.103 12.9659C187.967 13.2178 187.899 13.5178 187.899 13.8658H186.144C186.144 13.2195 186.291 12.6577 186.586 12.1804C186.881 11.7031 187.287 11.3336 187.804 11.0717C188.325 10.8099 188.921 10.679 189.594 10.679C190.277 10.679 190.877 10.8066 191.394 11.0618C191.911 11.317 192.312 11.6667 192.597 12.1108C192.885 12.5549 193.029 13.062 193.029 13.6321C193.029 14.0133 192.957 14.3878 192.811 14.7557C192.665 15.1236 192.408 15.5312 192.04 15.9787C191.676 16.4261 191.163 16.968 190.504 17.6044L188.749 19.3892V19.4588H193.184V21H186.203ZM198.837 21.1939C198.019 21.1939 197.316 20.9867 196.729 20.5724C196.146 20.1548 195.697 19.5533 195.382 18.7678C195.07 17.9789 194.915 17.0294 194.915 15.919C194.918 14.8087 195.075 13.8641 195.387 13.0852C195.702 12.303 196.151 11.7064 196.734 11.2955C197.321 10.8845 198.022 10.679 198.837 10.679C199.653 10.679 200.354 10.8845 200.94 11.2955C201.527 11.7064 201.976 12.303 202.288 13.0852C202.602 13.8674 202.76 14.812 202.76 15.919C202.76 17.0327 202.602 17.9839 202.288 18.7727C201.976 19.5582 201.527 20.1581 200.94 20.5724C200.357 20.9867 199.656 21.1939 198.837 21.1939ZM198.837 19.6378C199.474 19.6378 199.976 19.3246 200.344 18.6982C200.715 18.0684 200.9 17.142 200.9 15.919C200.9 15.1103 200.816 14.4309 200.647 13.8807C200.478 13.3305 200.239 12.9162 199.931 12.6378C199.623 12.3561 199.258 12.2152 198.837 12.2152C198.204 12.2152 197.704 12.5301 197.336 13.1598C196.968 13.7862 196.782 14.706 196.779 15.919C196.776 16.7311 196.857 17.4138 197.023 17.9673C197.192 18.5208 197.43 18.9384 197.739 19.2202C198.047 19.4986 198.413 19.6378 198.837 19.6378ZM204.587 21V19.6676L208.121 16.2024C208.46 15.861 208.741 15.5578 208.967 15.2926C209.192 15.0275 209.361 14.7706 209.474 14.522C209.586 14.2734 209.643 14.0083 209.643 13.7266C209.643 13.4051 209.57 13.13 209.424 12.9013C209.278 12.6693 209.078 12.4903 208.822 12.3643C208.567 12.2384 208.277 12.1754 207.952 12.1754C207.618 12.1754 207.324 12.245 207.072 12.3842C206.821 12.5201 206.625 12.714 206.486 12.9659C206.35 13.2178 206.282 13.5178 206.282 13.8658H204.527C204.527 13.2195 204.674 12.6577 204.969 12.1804C205.264 11.7031 205.67 11.3336 206.188 11.0717C206.708 10.8099 207.304 10.679 207.977 10.679C208.66 10.679 209.26 10.8066 209.777 11.0618C210.294 11.317 210.695 11.6667 210.98 12.1108C211.268 12.5549 211.413 13.062 211.413 13.6321C211.413 14.0133 211.34 14.3878 211.194 14.7557C211.048 15.1236 210.791 15.5312 210.423 15.9787C210.059 16.4261 209.547 16.968 208.887 17.6044L207.132 19.3892V19.4588H211.567V21H204.587ZM213.054 19.1108V17.6442L217.375 10.8182H218.598V12.9062H217.852L214.943 17.5149V17.5945H220.974V19.1108H213.054ZM217.912 21V18.6634L217.931 18.0071V10.8182H219.671V21H217.912Z" fill="#394455"/>
</svg>
