<svg width="16" height="16" viewBox="0 0 16 16" fill="none" xmlns="http://www.w3.org/2000/svg">
<path fill-rule="evenodd" clip-rule="evenodd" d="M1.5 5.00001C1.5 3.25111 2.91777 1.83334 4.66667 1.83334H11.3333C13.0822 1.83334 14.5 3.25111 14.5 5.00001V11.6667C14.5 13.4156 13.0822 14.8333 11.3333 14.8333H4.66667C2.91777 14.8333 1.5 13.4156 1.5 11.6667V5.00001ZM4.66667 2.83334C3.47005 2.83334 2.5 3.80339 2.5 5.00001V11.6667C2.5 12.8633 3.47005 13.8333 4.66667 13.8333H11.3333C12.53 13.8333 13.5 12.8633 13.5 11.6667V5.00001C13.5 3.80339 12.53 2.83334 11.3333 2.83334H4.66667Z" fill="#7D899C"/>
<path fill-rule="evenodd" clip-rule="evenodd" d="M14 6.16666H2V5.16666H14V6.16666Z" fill="#7D899C"/>
<path fill-rule="evenodd" clip-rule="evenodd" d="M11 0.833313C10.7239 0.833313 10.5 1.05717 10.5 1.33331L10.5 3.33331C10.5 3.60946 10.7239 3.83331 11 3.83331C11.2761 3.83331 11.5 3.60946 11.5 3.33331L11.5 1.33331C11.5 1.05717 11.2761 0.833313 11 0.833313Z" fill="#7D899C"/>
<path fill-rule="evenodd" clip-rule="evenodd" d="M5 0.833313C4.72386 0.833313 4.5 1.05717 4.5 1.33331L4.5 3.33331C4.5 3.60946 4.72386 3.83331 5 3.83331C5.27614 3.83331 5.5 3.60946 5.5 3.33331L5.5 1.33331C5.5 1.05717 5.27614 0.833313 5 0.833313Z" fill="#7D899C"/>
<path fill-rule="evenodd" clip-rule="evenodd" d="M3.83337 8.33334C3.83337 8.60949 4.05723 8.83334 4.33337 8.83334H5.00004C5.27618 8.83334 5.50004 8.60949 5.50004 8.33334C5.50004 8.0572 5.27618 7.83334 5.00004 7.83334H4.33337C4.05723 7.83334 3.83337 8.0572 3.83337 8.33334Z" fill="#7D899C"/>
<path fill-rule="evenodd" clip-rule="evenodd" d="M7.16675 8.33334C7.16675 8.60949 7.39061 8.83334 7.66675 8.83334H8.33341C8.60956 8.83334 8.83341 8.60949 8.83341 8.33334C8.83341 8.0572 8.60956 7.83334 8.33341 7.83334H7.66675C7.39061 7.83334 7.16675 8.0572 7.16675 8.33334Z" fill="#7D899C"/>
<path fill-rule="evenodd" clip-rule="evenodd" d="M10.5 8.33334C10.5 8.60949 10.7239 8.83334 11 8.83334H11.6667C11.9428 8.83334 12.1667 8.60949 12.1667 8.33334C12.1667 8.0572 11.9428 7.83334 11.6667 7.83334H11C10.7239 7.83334 10.5 8.0572 10.5 8.33334Z" fill="#7D899C"/>
<path fill-rule="evenodd" clip-rule="evenodd" d="M3.83337 11C3.83337 11.2761 4.05723 11.5 4.33337 11.5H5.00004C5.27618 11.5 5.50004 11.2761 5.50004 11C5.50004 10.7239 5.27618 10.5 5.00004 10.5H4.33337C4.05723 10.5 3.83337 10.7239 3.83337 11Z" fill="#7D899C"/>
<path fill-rule="evenodd" clip-rule="evenodd" d="M7.16675 11C7.16675 11.2761 7.39061 11.5 7.66675 11.5H8.33341C8.60956 11.5 8.83341 11.2761 8.83341 11C8.83341 10.7239 8.60956 10.5 8.33341 10.5H7.66675C7.39061 10.5 7.16675 10.7239 7.16675 11Z" fill="#7D899C"/>
<path fill-rule="evenodd" clip-rule="evenodd" d="M10.5 11C10.5 11.2761 10.7239 11.5 11 11.5H11.6667C11.9428 11.5 12.1667 11.2761 12.1667 11C12.1667 10.7239 11.9428 10.5 11.6667 10.5H11C10.7239 10.5 10.5 10.7239 10.5 11Z" fill="#7D899C"/>
</svg>
