<svg width="16" height="16" viewBox="0 0 16 16" fill="none" xmlns="http://www.w3.org/2000/svg">
<path d="M8.00073 6.00015V8.00015M8.00073 8.00015H6.50073C5.55773 8.00015 5.08673 8.00015 4.79373 8.29315C4.50073 8.58615 4.50073 9.05715 4.50073 10.0002M8.00073 8.00015H9.50073C10.4437 8.00015 10.9147 8.00015 11.2077 8.29315C11.5007 8.58615 11.5007 9.05715 11.5007 10.0002M4.50073 10.0002C3.79323 10.0002 3.43973 10.0002 3.22073 10.2202C3.00073 10.4397 3.00073 10.7932 3.00073 11.5002C3.00073 12.2077 3.00073 12.5612 3.22073 12.7802C3.44023 13.0002 3.79323 13.0002 4.50073 13.0002C5.20823 13.0002 5.56173 13.0002 5.78073 12.7802C6.00073 12.5607 6.00073 12.2077 6.00073 11.5002C6.00073 10.7927 6.00073 10.4392 5.78073 10.2202C5.56123 10.0002 5.20823 10.0002 4.50073 10.0002ZM11.5007 10.0002C10.7932 10.0002 10.4397 10.0002 10.2207 10.2202C10.0007 10.4397 10.0007 10.7932 10.0007 11.5002C10.0007 12.2077 10.0007 12.5612 10.2207 12.7802C10.4402 13.0002 10.7937 13.0002 11.5007 13.0002C12.2077 13.0002 12.5612 13.0002 12.7807 12.7802C13.0007 12.5607 13.0007 12.2072 13.0007 11.5002C13.0007 10.7932 13.0007 10.4397 12.7807 10.2202C12.5612 10.0002 12.2082 10.0002 11.5007 10.0002ZM7.14373 3.00015H8.85773C9.89573 3.00015 10.0007 3.55515 10.0007 4.50015C10.0007 5.44515 9.89523 6.00015 8.85773 6.00015H7.14373C6.10573 6.00015 6.00073 5.44515 6.00073 4.50015C6.00073 3.55515 6.10623 3.00015 7.14373 3.00015Z" stroke="#7D899C" stroke-width="0.75" stroke-linecap="round" stroke-linejoin="round"/>
</svg>
